<?xml version="1.0" encoding="UTF-8" standalone="no"?>
<!-- Created with Inkscape (http://www.inkscape.org/) -->
<svg
   xmlns:svg="http://www.w3.org/2000/svg"
   xmlns="http://www.w3.org/2000/svg"
   version="1.0"
   width="886"
   height="352"
   id="svg2392">
  <defs
     id="defs2394" />
  <rect
     width="886"
     height="352"
     x="0"
     y="0"
     id="rect2466"
     style="fill:#be2801;fill-opacity:1;fill-rule:evenodd;stroke:none;stroke-width:0.80000001;marker:none;visibility:visible;display:inline;overflow:visible" />
  <path
     d="M 80.107887,173.35444 C 77.55755,173.37303 74.986255,173.71829 72.440014,174.39952 C 59.847938,177.76847 50.189832,189.1975 48.24425,203.03534 C 47.837558,205.92785 47.832158,207.06173 47.832158,273.25846 L 47.832158,339.07282 L 75.736756,339.07282 L 75.736756,208.52018 L 89.747934,208.52018 L 89.747934,339.07282 L 117.65256,339.07282 L 117.65256,208.52018 L 131.66371,208.52018 L 131.66371,339.07282 L 159.57201,339.07282 L 159.50576,204.99006 L 159.23715,203.25596 C 157.67874,193.23724 153.03514,185.21247 145.49824,179.51278 C 138.97791,174.58189 130.52465,172.45856 122.43573,173.71826 C 115.71684,174.7646 109.09931,178.30054 104.42873,183.34097 L 103.74069,184.08027 L 102.78036,183.09325 C 96.542954,176.69597 88.439012,173.29352 80.107887,173.35444 L 80.107887,173.35444 z M 406.75812,173.3621 C 398.79957,173.4461 390.82659,176.24731 384.33582,181.89711 C 377.60842,187.75291 373.40819,195.87184 372.42191,204.92807 C 372.19494,207.01217 372.19142,307.87612 372.41811,309.90282 C 373.48997,319.47772 378.10364,327.93892 385.45425,333.81242 C 392.39681,339.35982 401.38347,342.08732 410.12099,341.30232 C 425.88578,339.88602 438.61582,328.27432 441.49159,312.68972 C 442.05487,309.63712 442.04582,310.98422 442.00671,256.39355 L 441.96992,204.74229 L 441.705,203.22495 C 440.5273,196.45254 438.17906,191.14003 434.19166,186.23623 C 427.19938,177.63681 416.99045,173.25419 406.75802,173.3621 L 406.75812,173.3621 z M 206.08706,173.36595 C 201.15766,173.33635 196.15338,174.3385 191.65275,176.34255 C 181.36587,180.92316 173.67532,190.51318 171.57055,201.37856 C 170.8821,204.93263 170.94142,198.7657 170.90458,272.09327 L 170.86779,339.07272 L 198.77606,339.07272 L 198.77606,306.37262 L 212.78724,306.37262 L 212.78724,339.07272 L 240.69552,339.07272 L 240.65874,272.21715 C 240.62623,210.77646 240.60931,205.25623 240.43061,204.061 C 239.95363,200.87153 239.20838,198.0104 238.22296,195.56857 C 237.48865,193.74891 236.18351,191.10863 236.03372,191.14042 C 234.21028,187.59901 230.27191,184.05757 226.1294,180.51615 L 216.90082,175.20455 L 215.91474,174.89103 C 212.79914,173.89128 209.45978,173.3862 206.08705,173.36595 L 206.08706,173.36595 z M 252.11381,175.62591 L 252.11381,339.01022 L 280.01841,339.01022 L 280.01841,208.45759 L 294.02959,208.45759 L 294.02959,240.90997 L 286.96513,240.90997 L 286.96513,273.7339 L 294.02959,273.7339 L 294.02959,339.01022 L 321.93419,339.01022 L 321.46323,270.76891 C 320.52422,265.93434 317.66806,260.98539 314.08234,257.98384 L 313.30968,257.33742 L 313.76593,256.96968 C 314.77501,256.15823 317.3118,253.31985 318.10027,252.11964 C 319.70543,249.67624 320.91652,246.7191 321.45218,243.94076 C 321.92535,241.48689 321.9497,240.41921 321.90477,222.76389 C 321.85827,204.49567 321.87482,205.09358 321.23511,202.0244 C 318.56557,189.21753 307.77873,178.98197 294.13997,176.31877 C 290.91441,175.68892 291.78587,175.71467 271.27615,175.66848 L 252.11381,175.62587 L 252.11381,175.62591 z M 333.11852,175.69607 L 333.11852,339.07262 L 361.02312,339.07262 L 361.02312,175.69607 L 333.11852,175.69607 z M 198.77607,208.52003 L 212.78725,208.52003 L 212.78725,273.67249 L 198.77607,273.67249 L 198.77607,208.52003 L 198.77607,208.52003 z M 400.11312,208.52003 L 414.12429,208.52003 L 414.12429,306.24872 L 400.11312,306.24872 L 400.11312,208.52003 L 400.11312,208.52003 z M 690.9623,173.35827 C 688.92946,173.36032 686.86415,173.5382 684.7814,173.90791 C 670.93441,176.36589 659.76775,187.19279 656.84417,200.99541 C 656.06916,204.65443 656.13084,199.76748 656.13084,257.38449 C 656.13084,315.14202 656.06823,310.26552 656.85152,313.86652 C 660.12477,328.91422 672.86306,340.08102 688.19359,341.34102 C 689.40664,341.44072 692.7002,341.41502 693.959,341.29842 C 702.59359,340.49882 710.28652,336.75882 716.25951,330.45652 C 721.81653,324.59302 725.13055,317.00562 725.72024,308.78802 C 725.89268,306.38522 725.8962,208.36715 725.72403,206.03511 C 724.33339,187.21448 708.94528,173.3425 690.96241,173.35825 L 690.9623,173.35827 z M 771.62291,173.35827 C 763.72928,173.43767 755.91083,176.21955 749.4952,181.59136 C 748.11418,182.74768 745.12984,185.92013 744.08645,187.33942 C 741.20774,191.25532 739.18164,195.57512 738.08204,200.1516 C 737.15858,203.9951 737.21551,202.72469 737.17017,221.77361 C 737.12714,239.82856 737.13,240.05517 737.68493,242.69113 C 739.09162,249.37245 742.95454,254.69242 749.96585,259.61019 C 752.54654,261.42026 754.93472,262.84691 760.14357,265.68339 C 763.65072,267.59318 764.87714,268.27719 766.43844,269.19029 C 774.05196,273.6429 777.60565,277.54061 778.71201,282.65275 L 779.04293,306.24882 L 765.02651,306.24882 L 765.02651,273.6726 L 737.14075,273.6726 L 737.14075,291.16839 C 737.14075,310.14262 737.1388,310.04242 737.79524,313.31682 C 738.66002,317.62852 740.23827,321.54002 742.61567,325.26192 C 748.46326,334.41632 757.88521,340.20032 768.74388,341.30232 C 770.24701,341.45492 775.21027,341.34642 776.67499,341.12812 C 783.03039,340.18122 788.77556,337.72762 793.52264,333.93632 C 800.53003,328.33972 805.06024,320.54462 806.44334,311.69882 C 806.87206,308.95702 806.93161,305.97892 806.8809,290.26652 C 806.83788,276.93218 806.81166,275.19997 806.63087,273.98227 C 805.26749,264.79896 800.30879,258.55051 789.26477,252.09705 C 787.56025,251.10103 786.03303,250.25327 782.49923,248.34242 C 775.05251,244.31571 772.14822,242.3729 769.45719,239.61776 C 767.57245,237.68809 766.54694,236.11324 765.75086,233.93938 C 765.02365,231.95346 765.02651,232.02509 765.02651,219.71437 L 765.02651,208.52016 L 779.02823,208.52016 L 779.02823,241.09637 L 806.9287,241.09637 L 806.26685,201.95537 C 804.45245,192.07455 798.19953,183.1639 789.55526,178.13477 C 783.94695,174.87193 777.7624,173.29648 771.62291,173.35827 L 771.62291,173.35827 z M 575.00328,175.69607 L 575.00328,339.07262 L 602.88905,339.07262 L 602.88905,208.52003 L 616.89075,208.52003 L 616.89075,240.97239 L 609.83106,240.97239 L 609.83106,273.79634 L 616.89075,273.79634 L 616.89075,306.43452 L 616.89075,339.07262 L 644.77652,339.07262 L 644.77652,306.61642 C 644.77652,273.03552 644.77652,272.97754 644.28749,270.58363 C 643.3029,265.76076 640.47085,260.95468 636.85642,257.96498 L 636.1762,257.39986 L 636.56227,257.08245 C 637.81089,256.08398 638.89485,254.91254 639.90827,253.66458 C 642.12667,250.93662 643.75835,247.20986 644.51544,243.14001 C 644.75128,241.87235 644.8824,208.84537 644.66251,206.1047 C 644.06436,198.64831 641.16597,192.22366 635.89309,186.6619 C 629.972,180.41648 621.86568,176.58303 612.97115,175.82382 L 575.00328,175.69607 L 575.00328,175.69607 z M 493.93453,175.73092 L 493.93453,339.07262 L 521.8203,339.07262 L 521.8203,208.52003 L 535.82202,208.52003 L 535.82202,240.97239 L 528.76233,240.97239 L 528.76233,273.79634 L 535.82202,273.79634 L 535.82202,306.37262 L 528.76233,306.37262 L 528.76233,339.07262 C 534.90216,339.07262 543.41462,336.76222 548.73169,333.24722 C 557.23564,327.62542 562.45436,319.28602 563.53497,309.59302 C 563.79441,307.26582 563.7912,274.47856 563.53117,272.39125 C 563.0356,268.41148 561.51801,264.67269 559.07475,261.41382 C 558.25635,260.32224 556.62025,258.59379 555.78389,257.9379 L 555.09631,257.39986 L 555.4309,257.14439 C 559.07877,254.37178 562.22257,249.18837 563.21863,244.3051 C 563.71132,241.88974 563.72343,241.40198 563.68191,223.01212 C 563.63831,203.67916 563.66918,204.65835 562.93183,201.52171 C 559.96365,188.89423 549.73923,176.86508 536.23371,176.447 L 513.14265,175.73092 L 493.93442,175.73092 L 493.93453,175.73092 z M 683.95777,208.52003 L 697.95948,208.52003 L 697.95948,306.24872 L 683.95777,306.24872 L 683.95777,208.52003 z M 817.61666,306.31062 L 817.55476,339.07262 L 846.91052,339.07262 L 846.91052,306.31062 L 817.61669,306.31062 L 817.61666,306.31062 z M 84.71093,45.202959 C 83.030215,45.202959 81.328703,45.255869 80.462416,45.357789 C 68.697937,46.741769 58.970344,52.886349 53.353558,62.485849 C 52.01614,64.771609 50.847463,67.800499 50.181089,70.703459 C 49.209459,74.936139 49.233253,79.991329 50.244162,84.676859 C 52.52447,95.246069 59.784763,103.27368 69.865251,106.36854 C 73.692249,107.54348 75.147482,107.6984 83.044923,107.76589 L 89.723808,107.82394 L 89.723808,117.4621 L 49.472377,117.4621 L 49.472377,118.42205 C 49.473554,119.65099 49.647317,121.2662 49.954743,122.91212 C 52.510291,136.59364 64.616852,147.30578 79.690631,149.2216 C 82.317136,149.55542 85.422077,149.63046 87.868563,149.41902 C 97.097581,148.62137 105.41371,144.67095 111.39309,138.2519 C 113.48545,136.0057 114.06793,135.24772 115.54884,132.82124 C 119.47042,126.39575 120.77424,118.33945 119.15545,110.54507 C 116.46958,97.612829 107.19156,88.989679 93.998301,87.165749 C 92.831615,87.004459 91.123406,86.946619 86.013319,86.898669 L 79.51253,86.840609 L 79.51253,77.330169 L 119.82335,77.330169 C 119.92522,77.158159 119.67897,73.856589 119.46342,72.545929 C 117.40545,60.033059 107.60316,49.842189 94.280292,46.368049 C 92.775067,45.975529 90.84525,45.619739 88.833296,45.357789 C 88.051609,45.255999 86.391666,45.202819 84.71093,45.202959 L 84.71093,45.202959 z M 341.65148,47.347349 C 317.2966,47.393569 318.50924,47.401649 315.25131,48.098279 C 302.9475,50.729099 295.06788,60.249219 293.82693,73.985849 C 293.73818,74.968909 293.71335,82.491589 293.74161,98.263189 C 293.77853,118.88566 293.80038,121.2406 293.97909,122.37408 C 294.63311,126.52249 295.44734,129.28005 296.92522,132.35288 C 301.08666,141.00538 308.81403,146.19041 319.00266,147.17012 C 319.62306,147.22972 330.02849,147.28858 342.12646,147.29784 L 364.0629,147.29784 L 364.0629,119.382 L 322.68348,119.382 L 322.68348,75.348359 L 364.0629,75.348359 L 364.0629,47.347349 L 341.65151,47.347349 L 341.65148,47.347349 z M 130.09027,47.355029 L 130.12366,83.801999 C 130.16228,124.05461 130.09988,120.78838 130.8806,124.13522 C 133.7918,136.61496 144.60093,146.38297 158.29374,148.90801 C 161.66465,149.56118 165.09142,149.60958 168.50502,149.41509 C 175.08186,148.83979 181.15555,146.72566 186.31539,143.21801 C 187.91092,142.16643 189.37484,140.94814 190.77168,139.63369 C 195.49798,135.18898 198.92432,128.96961 200.01823,122.84239 C 200.50484,120.11681 200.50432,120.02049 200.50432,83.136239 L 200.50432,47.355029 L 170.28606,47.416969 L 170.22672,117.46204 L 160.37164,117.46204 L 160.37164,47.355029 L 130.0903,47.355029 L 130.09027,47.355029 z M 372.64505,47.385999 L 372.64505,147.31327 L 401.61659,147.31327 L 401.61659,77.330119 L 411.59039,77.330119 L 411.59039,147.31327 L 443.07022,147.31327 L 443.02574,133.96692 C 442.98663,122.04204 442.95864,120.49525 442.77714,119.44387 C 442.08236,115.4198 440.38768,111.85606 437.61956,108.60191 C 436.65947,107.47326 434.49589,105.39989 433.73837,104.88211 L 433.43412,104.67309 L 434.24672,103.78282 C 438.9835,98.580849 441.94787,91.852829 442.77343,84.432949 C 443.13643,81.170299 442.91053,76.777469 442.20944,73.389689 C 440.70392,66.114759 436.6188,59.197859 431.10394,54.593329 C 426.64748,50.872529 421.88831,48.689119 416.07643,47.695659 C 414.50471,47.426989 414.4185,47.424409 393.57229,47.385999 L 372.6451,47.385999 L 372.64505,47.385999 z M 211.90295,47.389839 L 211.90295,147.31324 L 240.87448,147.31324 L 240.87448,77.330089 L 250.8483,77.330089 L 250.8483,95.661959 L 250.8483,113.99383 C 252.92085,114.0583 254.97883,113.82848 257.02255,113.48676 C 270.45682,111.02415 281.11789,100.64044 283.83828,87.363079 C 284.76531,82.838549 284.65544,77.303479 283.55258,72.824539 C 280.52712,60.537619 270.63366,50.900789 258.2433,48.171719 C 254.71912,47.395509 256.00064,47.436419 232.94886,47.389839 L 211.90295,47.389839 z M 331.94484,85.009659 L 331.94484,109.78245 L 364.12223,109.78245 L 364.12223,85.009659 L 331.94484,85.009659 z"
     id="path2977-8"
     style="fill:#000000;fill-opacity:1;display:inline" />
  <path
     d="M 74.868483,156.43594 C 72.318146,156.45456 69.746851,156.7998 67.200609,157.48103 C 54.608533,160.84997 44.950431,172.27901 43.004844,186.11684 C 42.598154,189.00936 42.592751,190.14324 42.592751,256.33996 L 42.592751,322.15432 L 70.49735,322.15432 L 70.49735,191.60168 L 84.50853,191.60168 L 84.50853,322.15432 L 112.41315,322.15432 L 112.41315,191.60168 L 126.42432,191.60168 L 126.42432,322.15432 L 154.33259,322.15432 L 154.26639,188.07156 L 153.99777,186.33747 C 152.43937,176.31875 147.79577,168.29397 140.25888,162.59429 C 133.73855,157.66339 125.2853,155.54007 117.19637,156.79977 C 110.47747,157.8461 103.85995,161.38205 99.189364,166.42247 L 98.50132,167.16178 L 97.540993,166.17475 C 91.303549,159.77748 83.199609,156.37503 74.868483,156.43594 L 74.868483,156.43594 z M 200.84765,156.44746 C 195.91825,156.41787 190.91396,157.42 186.41334,159.42406 C 176.12645,164.00467 168.43591,173.59469 166.33114,184.46007 C 165.64268,188.01414 165.70201,181.8472 165.66517,255.17479 L 165.62838,322.15422 L 193.53666,322.15422 L 193.53666,289.45414 L 207.54783,289.45414 L 207.54783,322.15422 L 235.45612,322.15422 L 235.41933,255.29865 C 235.38682,193.85796 235.36995,188.33774 235.1912,187.1425 C 234.71422,183.95304 233.96897,181.09191 232.98355,178.65008 C 232.24925,176.83041 230.9441,174.19013 230.79431,174.22193 C 228.97087,170.68052 225.0325,167.13908 220.88999,163.59766 L 211.66141,158.28605 L 210.67533,157.97254 C 207.55974,156.97279 204.22038,156.4677 200.84765,156.44746 L 200.84765,156.44746 z M 193.53666,191.60154 L 207.54783,191.60154 L 207.54783,256.75399 L 193.53666,256.75399 L 193.53666,191.60154 L 193.53666,191.60154 z M 246.75557,158.76991 L 246.75557,322.15422 L 274.66018,322.15422 L 274.66018,191.6016 L 288.67136,191.6016 L 288.67136,224.05397 L 281.6069,224.05397 L 281.6069,256.87791 L 288.67136,256.87791 L 288.67136,322.15422 L 316.57596,322.15422 L 316.105,253.91292 C 315.16598,249.07835 312.30981,244.1294 308.72411,241.12784 L 307.95143,240.48142 L 308.40767,240.11369 C 309.41677,239.30225 311.95356,236.46385 312.74202,235.26365 C 314.3472,232.82025 315.55827,229.8631 316.09395,227.08476 C 316.56711,224.6309 316.59145,223.56321 316.54652,205.90789 C 316.50003,187.63968 316.51663,188.23759 315.87688,185.16841 C 313.20733,172.36154 302.42048,162.12598 288.78173,159.46277 C 285.55617,158.83293 286.42764,158.85868 265.91791,158.81248 L 246.75557,158.76991 L 246.75557,158.76991 z M 327.87909,158.77758 L 327.87909,322.15412 L 355.7837,322.15412 L 355.7837,158.77758 L 327.87909,158.77758 L 327.87909,158.77758 z M 401.5187,156.44361 C 393.56014,156.52757 385.58717,159.32882 379.09641,164.97862 C 372.369,170.83441 368.16876,178.95335 367.1825,188.00958 C 366.95552,190.09368 366.95199,290.95767 367.17879,292.9843 C 368.25065,302.55922 372.86432,311.02042 380.21493,316.89392 C 387.15748,322.44132 396.14415,325.16882 404.88166,324.38382 C 420.64646,322.96752 433.37648,311.35582 436.25226,295.77124 C 436.81555,292.71857 436.8065,294.06573 436.76739,239.47506 L 436.73059,187.82379 L 436.46567,186.30645 C 435.28796,179.53404 432.93971,174.22154 428.95232,169.31775 C 421.96005,160.71832 411.75111,156.33569 401.51869,156.44361 L 401.5187,156.44361 z M 394.87369,191.60154 L 408.88486,191.60154 L 408.88486,289.33022 L 394.87369,289.33022 L 394.87369,191.60154 z M 766.38347,156.43977 C 758.48985,156.51922 750.67139,159.30105 744.25575,164.67287 C 742.87474,165.82919 739.89041,169.00163 738.84701,170.42092 C 735.96832,174.33682 733.9422,178.65663 732.8426,183.2331 C 731.91915,187.0766 731.97607,185.8062 731.93073,204.85511 C 731.88775,222.91007 731.89052,223.13667 732.4455,225.77263 C 733.85219,232.45396 737.71512,237.77392 744.72641,242.69169 C 747.30709,244.50177 749.69529,245.92842 754.90412,248.76489 C 758.41129,250.67469 759.63771,251.3587 761.19902,252.27179 C 768.81252,256.7244 772.36621,260.62211 773.47256,265.73425 L 773.80349,289.33034 L 759.78707,289.33034 L 759.78707,256.75411 L 731.90131,256.75411 L 731.90131,274.2499 C 731.90131,293.22411 731.89907,293.12396 732.5558,296.39832 C 733.42058,300.71002 734.99883,304.62162 737.37624,308.34342 C 743.22383,317.49782 752.64577,323.28182 763.50445,324.38382 C 765.00758,324.53642 769.97083,324.42792 771.43556,324.20962 C 777.79095,323.26272 783.53612,320.80912 788.2832,317.01782 C 795.29058,311.42122 799.8208,303.62612 801.2039,294.78035 C 801.63262,292.03854 801.69217,289.06044 801.64146,273.34802 C 801.59842,260.01369 801.5722,258.28148 801.39143,257.06377 C 800.02806,247.88047 795.06935,241.63201 784.02533,235.17856 C 782.32082,234.18253 780.79359,233.33478 777.25979,231.42393 C 769.81307,227.39721 766.90878,225.45441 764.21775,222.69926 C 762.33302,220.7696 761.3075,219.19473 760.51143,217.02088 C 759.7842,215.03496 759.78707,215.1066 759.78707,202.79587 L 759.78707,191.60166 L 773.78879,191.60166 L 773.78879,224.17788 L 801.68925,224.17788 L 801.02741,185.03687 C 799.21301,175.15605 792.96008,166.24541 784.31581,161.21628 C 778.70751,157.95344 772.52297,156.37799 766.38347,156.43977 z M 569.76384,158.77758 L 569.76384,322.15412 L 597.64961,322.15412 L 597.64961,191.60154 L 611.65132,191.60154 L 611.65132,224.05389 L 604.59163,224.05389 L 604.59163,256.87785 L 611.65132,256.87785 L 611.65132,289.51601 L 611.65132,322.15412 L 639.53708,322.15412 L 639.53708,289.69794 C 639.53708,256.11702 639.53708,256.05905 639.04805,253.66513 C 638.06348,248.84226 635.23141,244.03619 631.61699,241.04649 L 630.93676,240.48136 L 631.32284,240.16396 C 632.57146,239.16549 633.6554,237.99405 634.66883,236.74609 C 636.88723,234.01812 638.51891,230.29137 639.27601,226.22152 C 639.51185,224.95385 639.64296,191.92688 639.42309,189.18619 C 638.82492,181.72982 635.92653,175.30517 630.65364,169.74341 C 624.73257,163.49798 616.62624,159.66453 607.73171,158.90532 L 569.76384,158.77758 z M 488.69511,158.81242 L 488.69511,322.15412 L 516.58087,322.15412 L 516.58087,191.60154 L 530.58259,191.60154 L 530.58259,224.05389 L 523.5229,224.05389 L 523.5229,256.87785 L 530.58259,256.87785 L 530.58259,289.45408 L 523.5229,289.45408 L 523.5229,322.15412 C 529.66273,322.15412 538.1752,319.84372 543.49225,316.32872 C 551.99622,310.70692 557.21493,302.36752 558.29553,292.67454 C 558.55498,290.34733 558.55177,257.56006 558.29183,255.47276 C 557.79627,251.49298 556.27867,247.7542 553.8354,244.49532 C 553.01702,243.40374 551.38091,241.6753 550.54456,241.0194 L 549.85698,240.48136 L 550.19157,240.22589 C 553.83944,237.45328 556.98323,232.26987 557.9793,227.38661 C 558.47197,224.97124 558.4841,224.48348 558.44258,206.09362 C 558.39897,186.76066 558.42981,187.73986 557.69248,184.60322 C 554.72432,171.97574 544.4999,159.94658 530.99437,159.52851 L 507.90332,158.81242 L 488.69509,158.81242 L 488.69511,158.81242 z M 685.72287,156.43977 C 683.69003,156.44151 681.62472,156.61971 679.54197,156.98942 C 665.69498,159.4474 654.52831,170.2743 651.60474,184.07692 C 650.82972,187.73594 650.8914,182.84899 650.8914,240.466 C 650.8914,298.22356 650.82881,293.34706 651.61209,296.94797 C 654.88534,311.99572 667.62363,323.16252 682.95414,324.42252 C 684.1672,324.52222 687.46076,324.49652 688.71955,324.38002 C 697.35414,323.58032 705.04709,319.84032 711.02008,313.53802 C 716.57708,307.67462 719.89111,300.08712 720.4808,291.86955 C 720.65324,289.46678 720.65675,191.44868 720.48449,189.11664 C 719.09386,170.296 703.70573,156.42403 685.72288,156.43977 L 685.72287,156.43977 z M 678.71834,191.60154 L 692.72005,191.60154 L 692.72005,289.33022 L 678.71834,289.33022 L 678.71834,191.60154 z M 812.37777,289.39214 L 812.31585,322.15412 L 841.67161,322.15412 L 841.67161,289.39214 L 812.37777,289.39214 z M 79.471616,28.284469 C 77.790901,28.284469 76.089393,28.337379 75.223106,28.439299 C 63.458623,29.823279 53.731028,35.967859 48.114243,45.567359 C 46.776827,47.853119 45.608146,50.882009 44.941777,53.784959 C 43.97015,58.017649 43.993945,63.072839 45.00485,67.758369 C 47.285159,78.327579 54.545448,86.355179 64.625938,89.450039 C 68.45294,90.624979 69.908172,90.779909 77.805609,90.847389 L 84.484494,90.905449 L 84.484494,100.54361 L 44.233068,100.54361 L 44.233068,101.50356 C 44.234255,102.7325 44.408001,104.34771 44.715432,105.99363 C 47.270982,119.67514 59.377544,130.38728 74.451321,132.3031 C 77.077822,132.63692 80.182763,132.71196 82.629249,132.50053 C 91.858266,131.70287 100.1744,127.75245 106.15377,121.3334 C 108.24614,119.0872 108.82861,118.32922 110.30953,115.90275 C 114.23111,109.47725 115.53493,101.42095 113.91614,93.626569 C 111.23026,80.694329 101.95224,72.071189 88.758986,70.247259 C 87.5923,70.085969 85.884091,70.028119 80.774005,69.980179 L 74.27322,69.922109 L 74.27322,60.411679 L 114.58403,60.411679 C 114.68591,60.239679 114.43966,56.938089 114.22411,55.627439 C 112.16614,43.114569 102.36385,32.923709 89.040978,29.449559 C 87.535753,29.057039 85.605936,28.701239 83.593981,28.439299 C 82.812296,28.337519 81.152352,28.284329 79.471616,28.284469 L 79.471616,28.284469 z M 336.41215,30.428859 C 312.05728,30.475079 313.2699,30.483159 310.01198,31.179789 C 297.70818,33.810609 289.82854,43.330729 288.58761,57.067359 C 288.4988,58.050419 288.47403,65.573099 288.50226,81.344689 C 288.53921,101.96716 288.56103,104.32211 288.73974,105.45559 C 289.39376,109.60399 290.20799,112.36156 291.68587,115.43439 C 295.8473,124.08688 303.57468,129.27191 313.76331,130.25163 C 314.3837,130.31125 324.78912,130.37008 336.8871,130.37935 L 358.82353,130.37935 L 358.82353,102.46351 L 317.44411,102.46351 L 317.44411,58.429859 L 358.82353,58.429859 L 358.82353,30.428859 L 336.41215,30.428859 L 336.41215,30.428859 z M 124.85097,30.436539 L 124.88436,66.883519 C 124.92298,107.13611 124.86057,103.86988 125.6413,107.21672 C 128.55249,119.69646 139.36161,129.46447 153.05442,131.98952 C 156.42533,132.64269 159.8521,132.69109 163.26569,132.4966 C 169.84253,131.92129 175.91624,129.80717 181.07607,126.29951 C 182.6716,125.24794 184.13553,124.02965 185.53236,122.7152 C 190.25865,118.27048 193.68501,112.05111 194.77891,105.92389 C 195.26553,103.19831 195.265,103.10199 195.265,66.217749 L 195.265,30.436539 L 165.04672,30.498469 L 164.98737,100.54355 L 155.1323,100.54355 L 155.1323,30.436539 L 124.85097,30.436539 L 124.85097,30.436539 z M 367.40572,30.467509 L 367.40572,130.39477 L 396.37726,130.39477 L 396.37726,60.411619 L 406.35107,60.411619 L 406.35107,130.39477 L 437.83089,130.39477 L 437.78637,117.04842 C 437.74723,105.12354 437.7193,103.57676 437.53777,102.52537 C 436.84298,98.501299 435.14831,94.937559 432.38019,91.683409 C 431.42009,90.554769 429.2565,88.481389 428.49899,87.963619 L 428.19475,87.754599 L 429.00734,86.864329 C 433.74413,81.662359 436.70851,74.934339 437.53405,67.514449 C 437.89706,64.251799 437.67115,59.858979 436.97006,56.471199 C 435.46453,49.196269 431.37942,42.279369 425.86455,37.674839 C 421.40811,33.954039 416.64893,31.770629 410.83704,30.777169 C 409.26532,30.508489 409.17912,30.505919 388.33291,30.467509 L 367.40572,30.467509 L 367.40572,30.467509 z M 206.66363,30.471349 L 206.66363,130.39475 L 235.63516,130.39475 L 235.63516,60.411599 L 245.60896,60.411599 L 245.60896,78.743459 L 245.60896,97.075329 C 247.68153,97.139809 249.73951,96.909979 251.78323,96.568259 C 265.2175,94.105659 275.87857,83.721939 278.59896,70.444579 C 279.52599,65.920059 279.41612,60.384989 278.31325,55.906049 C 275.28779,43.619139 265.39434,33.982299 253.00398,31.253239 C 249.4798,30.477019 250.76131,30.517919 227.70954,30.471349 L 206.66363,30.471349 L 206.66363,30.471349 z M 326.70551,68.091169 L 326.70551,92.863959 L 358.8829,92.863959 L 358.8829,68.091169 L 326.70551,68.091169 L 326.70551,68.091169 z"
     id="path2977"
     style="fill:#ffd3b1;fill-opacity:1;display:inline" />
</svg>
